<?xml version="1.0" encoding="UTF-8"?><svg xmlns="http://www.w3.org/2000/svg" viewBox="0 0 603.58 329"><defs><style>.c{fill:none;}.c,.d{stroke:#734136;}.c,.d,.e{stroke-miterlimit:10;stroke-width:6px;}.f,.d{fill:#734136;}.e{fill:#fff;stroke:#fff;}</style></defs><g id="a"/><g id="b"><path class="c" d="M394.74,32.2c1.78-6.96,6.14-16.45,15.49-29.12,0,0-35.16,.5-58.16,10.83l-.72-.31c-7.77-1.49-15.97-2.28-24.43-2.28-50.26,0-91.01,28.04-91.01,62.62s40.75,62.62,91.01,62.62,91.01-28.04,91.01-62.62c0-16.04-8.77-30.67-23.19-41.75Z"/><path class="c" d="M203.05,183.21c-1.78,6.96-6.14,16.45-15.49,29.12,0,0,35.16-.5,58.16-10.83l.72,.31c7.77,1.49,15.97,2.28,24.43,2.28,50.26,0,91.01-28.04,91.01-62.62,0-34.59-40.75-62.62-91.01-62.62-50.26,0-91.01,28.04-91.01,62.62,0,16.04,8.77,30.67,23.19,41.75Z"/><path class="d" d="M269.97,78.84c-12,0-23.44,1.61-33.93,4.52,6.59,30.13,44.37,53.22,89.99,53.22,12,0,23.44-1.61,33.93-4.52-6.59-30.13-44.37-53.22-89.99-53.22Z"/><circle class="e" cx="276.03" cy="107.71" r="4.85"/><circle class="e" cx="298" cy="107.71" r="4.85"/><circle class="e" cx="319.97" cy="107.71" r="4.85"/><g><path class="f" d="M52.13,270.47h-.1l-17.9,56.95h-12.29L0,254.24H12.1l16.23,58.33h.1l18-58.33h11.21l18.2,58.42h.1l15.84-58.42h11.8l-21.44,73.18h-12.1l-17.9-56.95Z"/><path class="f" d="M124.61,279.72h.2c3.05-4.23,8.56-7.28,14.95-7.28,11.7,0,19.18,6.79,19.18,19.38v35.61h-11.61v-32.07c0-8.26-3.54-12.29-10.82-12.29-6.49,0-11.9,3.84-11.9,11.61v32.75h-11.61v-78.79h11.61v31.08Z"/><path class="f" d="M170.44,300.67c0-17.11,11.8-28.23,24.1-28.23,7.87,0,14.75,3.93,18.59,10.52l1.28-9.25h9.64v53.7h-9.64l-1.28-9.25c-3.84,6.59-10.72,10.52-18.59,10.52-12.29,0-24.1-11.11-24.1-28.03Zm42.29-.1c0-10.23-6.69-17.51-15.25-17.51s-15.44,7.28-15.44,17.51,6.69,17.51,15.44,17.51,15.25-7.18,15.25-17.51Z"/><path class="f" d="M253.25,273.72h14.85v9.84h-14.85v23.8c0,7.67,4.72,10.82,11.21,10.82,1.48,0,3.05-.2,4.82-.49v9.93c-1.48,.29-3.93,.69-7.18,.69-12.69,0-20.26-7.57-20.26-20.36v-24.39h-7.87v-9.84h8.06v-12.49h11.21v12.49Z"/><path class="f" d="M314.04,276.96v10.62c-3.84-3.05-9.93-5.21-16.13-5.21s-9.44,2.36-9.44,6.1c0,4.03,4.03,5.51,10.82,7.48,8.46,2.26,17.9,5.11,17.9,16.13,0,10.13-7.97,16.62-21.25,16.62-7.18,0-13.87-1.97-18.79-5.71v-11.41c4.43,4.03,10.62,7.28,18.39,7.28,6.59,0,10.33-2.75,10.33-6.69,0-4.43-4.62-5.9-12-8.16-8.75-2.56-16.72-5.71-16.72-15.25s7.67-16.33,20.36-16.33c6.2,0,12.59,1.77,16.52,4.52Z"/><path class="f" d="M388.88,317.98c5.41,0,9.05-.98,12.88-2.85v-27.25h11.02v34.33c-6.89,4.23-14.46,6.79-24.1,6.79-19.67,0-36.79-14.95-36.79-38.16s17.02-38.16,36.98-38.16c8.16,0,15.74,2.07,21.54,5.41v12c-6.39-4.23-13.38-6.1-20.56-6.1-14.75,0-25.97,11.11-25.97,26.95s10.92,27.05,24.98,27.05Z"/><path class="f" d="M423.3,300.57c0-16.33,11.9-28.13,27.34-28.13s27.25,11.8,27.25,28.13-11.7,28.13-27.25,28.13-27.34-11.8-27.34-28.13Zm42.88,0c0-11.12-7.57-17.51-15.54-17.51s-15.64,6.39-15.64,17.51,7.67,17.51,15.64,17.51,15.54-6.39,15.54-17.51Z"/><path class="f" d="M486.54,300.57c0-16.33,11.9-28.13,27.34-28.13s27.25,11.8,27.25,28.13-11.7,28.13-27.25,28.13-27.34-11.8-27.34-28.13Zm42.88,0c0-11.12-7.57-17.51-15.54-17.51s-15.64,6.39-15.64,17.51,7.67,17.51,15.64,17.51,15.54-6.39,15.54-17.51Z"/><path class="f" d="M549.88,300.57c0-17.21,11.61-28.13,24.2-28.13,7.48,0,14.36,3.74,17.9,10.03v-33.83h11.61v78.79h-9.64l-1.38-9.25c-3.74,6.59-10.72,10.52-18.39,10.52-12.59,0-24.29-10.92-24.29-28.13Zm42.29,0c0-10.23-6.69-17.51-15.25-17.51s-15.34,7.28-15.34,17.51,6.59,17.51,15.34,17.51,15.25-7.18,15.25-17.51Z"/></g></g></svg>